P3
3 2
255
255 10 50 90 10 0 0 0 255 
255 10 0 255 255 255 0 0 0 
